<svg viewBox="0 0 200 200" xmlns="http://www.w3.org/2000/svg">
  <defs>
    <pattern id="check-pat-blanket" x="0" y="0" width="8" height="8" patternUnits="userSpaceOnUse">
      <rect width="8" height="8" fill="#d4806a"/>
      <rect width="4" height="4" fill="#b56850"/>
      <rect x="4" y="4" width="4" height="4" fill="#b56850"/>
      <path d="M0 4 L8 4" stroke="#8a4830" stroke-width="0.4"/>
      <path d="M4 0 L4 8" stroke="#8a4830" stroke-width="0.4"/>
    </pattern>
  </defs>
  <g transform="translate(100 158) scale(1.2) translate(-100 -158)">
    <path d="M68 138 Q100 148 132 138 L130 154 Q100 160 70 154 Z" fill="#b56850" stroke="#5a2818" stroke-width="2" stroke-linejoin="round"/>
    <path d="M72 144 Q100 152 128 144" stroke="#8a4830" stroke-width="0.7" fill="none" opacity="0.6"/>
    <path d="M84 152 Q78 162 82 172 L96 172 Q94 162 96 152 Z" fill="url(#check-pat-blanket)" stroke="#5a2818" stroke-width="2" stroke-linejoin="round"/>
    <path d="M116 152 Q122 164 118 174 L104 174 Q106 164 104 152 Z" fill="url(#check-pat-blanket)" stroke="#5a2818" stroke-width="2" stroke-linejoin="round"/>
    <ellipse cx="100" cy="152" rx="7" ry="5" fill="#7a3818" stroke="#3a1808" stroke-width="1.4"/>
    <path d="M95 150 Q100 154 105 150" stroke="#3a1808" stroke-width="0.8" fill="none"/>
    <path d="M84 172 L83 178 M88 172 L88 178 M92 172 L93 178" stroke="#5a2818" stroke-width="1.2" stroke-linecap="round"/>
    <path d="M108 174 L107 180 M112 174 L112 180 M116 174 L117 180" stroke="#5a2818" stroke-width="1.2" stroke-linecap="round"/>
  </g>
</svg>
