<svg viewBox="0 0 200 200" xmlns="http://www.w3.org/2000/svg">
  <g>
    <path d="M86 120 C76 113 74 104 81 104 C84 104 86 107 86 109 C86 107 88 104 91 104 C98 104 96 113 86 120 Z" fill="none" stroke="#c43a3a" stroke-width="2.4" stroke-linejoin="round"/>
    <path d="M114 120 C104 113 102 104 109 104 C112 104 114 107 114 109 C114 107 116 104 119 104 C126 104 124 113 114 120 Z" fill="none" stroke="#c43a3a" stroke-width="2.4" stroke-linejoin="round"/>
    <path d="M96 113 Q100 111 104 113" stroke="#c43a3a" stroke-width="2.2" fill="none" stroke-linecap="round"/>
    <path d="M76 111 Q72 109 68 111" stroke="#c43a3a" stroke-width="1.8" fill="none" stroke-linecap="round"/>
    <path d="M124 111 Q128 109 132 111" stroke="#c43a3a" stroke-width="1.8" fill="none" stroke-linecap="round"/>
    <path d="M81 106 L82 108 L84 108.4 L82 108.8 L81 110.5 L80 108.8 L78 108.4 L80 108 Z" fill="#fff5b8" stroke="#c43a3a" stroke-width="0.5"/>
    <path d="M119 108 L120 109 L121 109.4 L120 109.8 L119 111 L118 109.8 L117 109.4 L118 109 Z" fill="#fff5b8" stroke="#c43a3a" stroke-width="0.5"/>
  </g>
</svg>
