<!-- covering -->
<svg xmlns="http://www.w3.org/2000/svg" viewBox="2 4 18 18">
  <line x1="11" y1="7.4" x2="11" y2="6.2" stroke="#2b2520" stroke-width="0.2" stroke-linecap="round"/>
  <path d="M 11 6.4 Q 10.1 5.5 10.6 4.7 Q 11 5.5 11 6.4 Z"
    fill="#C8E6C9" stroke="#2b2520" stroke-width="0.2"
    transform="rotate(-75 11 6.4) translate(0 0.4)"/>
  <path d="M 11 6.4 Q 11.9 5.5 11.4 4.7 Q 11 5.5 11 6.4 Z"
    fill="#C8E6C9" stroke="#2b2520" stroke-width="0.2"
    transform="rotate(75 11 6.4) translate(0 0.4)"/>
  <ellipse cx="11" cy="12.5" rx="6.5" ry="5.8"
    fill="#fdeed1" stroke="#2b2520" stroke-width="0.25"/>
  <circle cx="9.2" cy="12.2" r="0.9" fill="#2b2520"/>
  <circle cx="12.8" cy="12.2" r="0.9" fill="#2b2520"/>
  <path d="M 9.6 13.6 Q 10.1 13.4 10.6 13.6 T 11.6 13.6 T 12.6 13.6"
    stroke="#2b2520" stroke-width="0.2" fill="none" stroke-linecap="round" opacity="0.7"/>
  <path d="M 8.7 12.7 Q 8.5 13.4 8.9 13.4 Q 9.1 13.2 8.7 12.7 Z" fill="#7aa3e6"/>
</svg>
