<!-- focused -->
<svg xmlns="http://www.w3.org/2000/svg" viewBox="2 4 18 18">
  <g stroke="#2b2520" stroke-width="0.25" stroke-linecap="round" fill="none">
    <line x1="11" y1="7.4" x2="11" y2="6.2" stroke-width="0.2"/>
  </g>
  <path d="M 11 6.4 Q 10.1 5.5 10.6 4.7 Q 11 5.5 11 6.4 Z"
    fill="#4CAF50" stroke="#2b2520" stroke-width="0.2"
    transform="rotate(-30 11 6.4)"/>
  <path d="M 11 6.4 Q 11.9 5.5 11.4 4.7 Q 11 5.5 11 6.4 Z"
    fill="#4CAF50" stroke="#2b2520" stroke-width="0.2"
    transform="rotate(30 11 6.4)"/>
  <ellipse cx="11" cy="12.5" rx="6.5" ry="5.8"
    fill="#fdeed1" stroke="#2b2520" stroke-width="0.25"/>
  <path d="M 8.4 11.9 Q 9.1 10.9 9.8 11.9" stroke="#2b2520" stroke-width="0.6" fill="none" stroke-linecap="round"/>
  <path d="M 12.2 11.9 Q 12.9 10.9 13.6 11.9" stroke="#2b2520" stroke-width="0.6" fill="none" stroke-linecap="round"/>
  <path d="M 9.2 13.3 Q 11 14.5 12.8 13.3" stroke="#2b2520" stroke-width="0.25" fill="none" stroke-linecap="round"/>
  <ellipse cx="8.6" cy="13.2" rx="0.8" ry="0.5" fill="#e89a82" opacity="0.9"/>
  <ellipse cx="13.4" cy="13.2" rx="0.8" ry="0.5" fill="#e89a82" opacity="0.9"/>
</svg>
